<?xml version="1.0" encoding="utf-8"?>
<!-- Generator: Adobe Illustrator 16.0.0, SVG Export Plug-In . SVG Version: 6.00 Build 0)  -->
<!DOCTYPE svg PUBLIC "-//W3C//DTD SVG 1.1//EN" "http://www.w3.org/Graphics/SVG/1.1/DTD/svg11.dtd">
<svg version="1.1" id="Layer_1" xmlns="http://www.w3.org/2000/svg" xmlns:xlink="http://www.w3.org/1999/xlink" x="0px" y="0px"
	 width="400px" height="150px" viewBox="0 0 400 150" enable-background="new 0 0 400 150" xml:space="preserve">
<rect display="none" fill="#D5F900" width="400" height="150"/>
<g>
	<path fill="#EF4729" d="M5.79,0L5,0.938l2.404,2.856H0v1.25h7.404L5,7.9l0.79,0.938l3.72-4.419L5.79,0z"/>
</g>
<g>
	<path fill="#3D67D1" d="M16.79,0L16,0.938l2.404,2.856H11v1.25h7.404L16,7.9l0.79,0.938l3.72-4.419L16.79,0z"/>
</g>
<g>
	<path fill="#2B4892" d="M272.133,0l-1.246,1.592l3.791,4.848H263v2.121h11.678l-3.791,4.848L272.133,15L278,7.5L272.133,0z"/>
</g>
<g>
	<path fill="#2B4892" d="M285.867,15l1.246-1.592l-3.791-4.848H295V6.439h-11.678l3.791-4.848L285.867,0L280,7.5L285.867,15z"/>
</g>
<g>
	<path fill="#AAB5D3" d="M272.133,16l-1.246,1.592l3.791,4.848H263v2.121h11.678l-3.791,4.848L272.133,31L278,23.5L272.133,16z"/>
</g>
<g>
	<path fill="#AAB5D3" d="M285.867,31l1.246-1.592l-3.791-4.848H295v-2.121h-11.678l3.791-4.848L285.867,16L280,23.5L285.867,31z"/>
</g>
<g>
	<title>1</title>
	<desc>Created with Sketch.</desc>
	<g id="Home">
		<g id="TC-Menu---Mobile" transform="translate(-337.000000, -265.000000)">
			<g id="Group-24-Copy-2" transform="translate(20.000000, 237.000000)">
				<polygon id="_x31_" fill="#FFFFFF" points="355,28 355,29.714 339,29.714 339,28 				"/>
			</g>
		</g>
	</g>
</g>
<g>
	<title>Rectangle 4</title>
	<desc>Created with Sketch.</desc>
	<g id="Home_1_">
		<g id="TC-Menu---Mobile_1_" transform="translate(-337.000000, -137.000000)">
			<g id="Group-24" transform="translate(20.000000, 116.000000)">
				<path id="Rectangle-4" fill="#FFFFFF" d="M347.857,25v7.142L355,32.143v1.714h-7.146V41h-1.714l-0.001-7.143H339v-1.714
					l7.142-0.001L346.143,25H347.857z"/>
			</g>
		</g>
	</g>
</g>
<g>
	<path fill="#2F3641" d="M64.5,18c0.828,0,1.5,0.671,1.5,1.5S65.328,21,64.5,21h-23c-0.828,0-1.5-0.671-1.5-1.5s0.672-1.5,1.5-1.5
		H64.5z M64.5,9c0.828,0,1.5,0.671,1.5,1.5S65.328,12,64.5,12h-23c-0.828,0-1.5-0.671-1.5-1.5S40.672,9,41.5,9H64.5z M64.5,0
		C65.328,0,66,0.671,66,1.5S65.328,3,64.5,3h-23C40.672,3,40,2.329,40,1.5S40.672,0,41.5,0H64.5z"/>
</g>
<g>
	<title>Rectangle 4</title>
	<desc>Created with Sketch.</desc>
	<g id="Home_4_">
		<g id="TC-Menu---Mobile_2_" transform="translate(-337.000000, -137.000000)">
			<g id="Group-24_2_" transform="translate(20.000000, 116.000000)">
				<path id="Rectangle-4_1_" fill="#2F3641" d="M386.937,21l8.049,8.049L403.037,21l1.932,1.932l-8.052,8.052l8.05,8.05
					l-1.931,1.931l-8.051-8.048l-8.047,8.047L385,39.032l8.047-8.049L385,22.933L386.937,21z"/>
			</g>
		</g>
	</g>
</g>
<g>
	<path fill="#FFFFFF" d="M94.583,0l0.771,0.74L93,3.2h12.057v1.075H93.02l2.34,2.445l-0.771,0.74L91,3.73L94.583,0z"/>
</g>
<g>
	<path fill="#FFFFFF" d="M117.469,0l-0.772,0.74l2.36,2.461H107v1.075h12.035l-2.346,2.445l0.773,0.74l3.584-3.73L117.469,0z"/>
</g>
<g>
	<title> copy</title>
	<desc>Created with Sketch.</desc>
	<g id="About">
		<g id="Careers" transform="translate(-1193.000000, -1155.000000)">
			<g id="Group-3" transform="translate(0.000000, 923.000000)">
				<path id="_xF108_-copy" fill="#2B4892" d="M1330.103,250.679c-0.568,0-1.058-0.204-1.466-0.613
					c-0.409-0.409-0.614-0.932-0.614-1.568c0-0.636,0.205-1.159,0.614-1.568l0,0l3.272-3.409h-14.796
					c-0.591,0-1.091-0.216-1.5-0.647c-0.408-0.432-0.613-0.943-0.613-1.534c0-0.591,0.205-1.102,0.613-1.534
					c0.409-0.432,0.909-0.647,1.5-0.647l0,0h14.796l-3.341-3.409c-0.409-0.409-0.613-0.932-0.613-1.568
					c0-0.636,0.204-1.159,0.613-1.568c0.409-0.409,0.909-0.614,1.5-0.614c0.591,0,1.091,0.205,1.5,0.614l0,0l6.818,7.159
					c0.408,0.409,0.613,0.932,0.613,1.568c0,0.591-0.205,1.091-0.613,1.5l0,0l-6.818,7.228
					C1331.159,250.475,1330.67,250.679,1330.103,250.679z"/>
			</g>
		</g>
	</g>
</g>
<g>
	<title></title>
	<desc>Created with Sketch.</desc>
	<g id="About_1_">
		<g id="Careers_1_" transform="translate(-223.000000, -1155.000000)">
			<g id="Group-3_1_" transform="translate(0.000000, 923.000000)">
				<path id="_xF108_" fill="#2B4892" d="M378.897,250.679c0.568,0,1.057-0.204,1.466-0.613c0.409-0.409,0.614-0.932,0.614-1.568
					c0-0.636-0.205-1.159-0.614-1.568l0,0l-3.272-3.409h14.796c0.591,0,1.091-0.216,1.5-0.647c0.409-0.431,0.613-0.943,0.613-1.534
					c0-0.591-0.204-1.102-0.613-1.534c-0.409-0.432-0.909-0.647-1.5-0.647l0,0h-14.796l3.341-3.409
					c0.409-0.409,0.614-0.932,0.614-1.568c0-0.636-0.205-1.159-0.614-1.568c-0.409-0.409-0.909-0.614-1.5-0.614
					c-0.591,0-1.091,0.205-1.5,0.614l0,0l-6.818,7.159c-0.409,0.409-0.613,0.932-0.613,1.568c0,0.591,0.204,1.091,0.613,1.5l0,0
					l6.818,7.228C377.841,250.475,378.329,250.679,378.897,250.679z"/>
			</g>
		</g>
	</g>
</g>
<g>
	<title>dropdown</title>
	<desc>Created with Sketch.</desc>
	<g id="About_2_">
		<g id="Press-Room" transform="translate(-1070.000000, -250.000000)">
			<g id="Group-20" transform="translate(135.000000, 225.000000)">
				<g id="Group-4" transform="translate(700.000000, 0.000000)">
					<polygon id="dropdown" fill="#596175" points="415.5,32.5 423,25 408,25 					"/>
				</g>
			</g>
		</g>
	</g>
</g>
<g>
	<title>Search</title>
	<desc>Created with Sketch.</desc>
	<g id="About_3_">
		<g id="Press-Room_1_" transform="translate(-467.000000, -245.000000)">
			<g id="Group-20_1_" transform="translate(135.000000, 225.000000)">
				<g id="Group-7">
					<path id="Search" fill="#596175" d="M520.448,48c0.156,0,0.281-0.047,0.375-0.141l0,0l2.013-2.063
						c0.219-0.219,0.219-0.438,0-0.656l0,0l-3.979-4.031c0.655-1.125,0.982-2.344,0.982-3.656c0-2.063-0.726-3.82-2.177-5.273
						c-1.451-1.453-3.191-2.18-5.22-2.18c-2.029,0-3.776,0.727-5.243,2.18c-1.467,1.453-2.2,3.211-2.2,5.273s0.733,3.82,2.2,5.273
						c1.467,1.453,3.215,2.18,5.243,2.18c1.311,0,2.56-0.359,3.745-1.078l0,0l3.933,4.031C520.215,47.953,520.324,48,520.448,48z
						 M512.443,42c-1.248,0-2.317-0.445-3.207-1.336c-0.889-0.891-1.334-1.961-1.334-3.211s0.445-2.32,1.334-3.211
						c0.89-0.891,1.959-1.336,3.207-1.336s2.31,0.453,3.184,1.359c0.874,0.875,1.311,1.938,1.311,3.188s-0.437,2.32-1.311,3.211
						S513.691,42,512.443,42z"/>
				</g>
			</g>
		</g>
	</g>
</g>
<g>
	<title></title>
	<desc>Created with Sketch.</desc>
	<g id="About_4_">
		<g id="Careers_2_" transform="translate(-1345.000000, -3126.000000)">
			<g id="Group-3_2_" transform="translate(80.000000, 2996.000000)">
				<path id="_xF125_" fill="#3D67D1" d="M1459.984,152.795c0.312,0.273,0.623,0.273,0.934,0l0,0l11.907-10.905
					c0.116-0.102,0.175-0.239,0.175-0.409c0-0.171-0.059-0.308-0.175-0.41l0,0l-11.907-10.905c-0.272-0.239-0.583-0.222-0.934,0.051
					l0,0l-1.751,1.536c-0.312,0.273-0.312,0.546,0,0.819l0,0l9.748,8.908l-9.748,8.908c-0.312,0.273-0.312,0.546,0,0.819l0,0
					L1459.984,152.795z"/>
			</g>
		</g>
	</g>
</g>
<g>
	<title> copy</title>
	<desc>Created with Sketch.</desc>
	<g id="About_5_">
		<g id="Careers_3_" transform="translate(-80.000000, -3126.000000)">
			<g id="Group-3_3_" transform="translate(80.000000, 2996.000000)">
				<path id="_xF125_-copy" fill="#3D67D1" d="M223.016,152.795c-0.312,0.273-0.623,0.273-0.934,0l0,0l-11.907-10.905
					c-0.116-0.102-0.175-0.239-0.175-0.409c0-0.171,0.059-0.308,0.175-0.41l0,0l11.907-10.905c0.271-0.239,0.583-0.222,0.934,0.051
					l0,0l1.752,1.536c0.313,0.273,0.313,0.546,0,0.819l0,0l-9.748,8.908l9.748,8.908c0.313,0.273,0.313,0.546,0,0.819l0,0
					L223.016,152.795z"/>
			</g>
		</g>
	</g>
</g>
<g>
	<path d="M239.459,2.823L238.313,2l-5.291,7.322l-2.668-2.063L229.5,8.361l3.85,2.949L239.459,2.823z"/>
</g>
<g>
	<path fill="#2B4892" d="M252,10l8-8.906L259.05,0L252,7.813L244.95,0L244,1.094L252,10z"/>
</g>
<g>
	<path fill="#2B4892" d="M252,12l8,8.906L259.05,22L252,14.187L244.95,22L244,20.906L252,12z"/>
</g>
<g>
	<g id="Home_3_">
		<polygon id="Rectangle" fill="#D8D8D8" points="298,0 302,4 306,8 298,8 		"/>
	</g>
	<g id="Home_2_">
		<polygon id="Rectangle_1_" fill="#FFFFFF" points="298.281,0.719 301.922,4.359 305.563,8 298.281,8 		"/>
	</g>
</g>
</svg>
